# xmcd
#
# Track frame offsets:
# 150
# 32273
# 51099
# 79972
# 94092
# 104651
# 115402
# 128999
# 143840
# 158121
# 174702
# 191240
# 209436
# 221887
# 237530
# 251739
# 296632
# 314675
# 337543
# 342181
#
# Disc length: 4621 seconds
#
# Revision: 0
# Processed by: cddbd v1.4PL0 Copyright (c) Steve Scherf et al.
# Submitted via: Axialis_AX_CDPlayer 2.6
#
DISCID=39120b14
DTITLE=Canned Heat - Uncanned, CD 1
DYEAR=1900
DGENRE=
TTITLE0=On the road again (altnate take)
TTITLE1=Nine below zero
TTITLE2=TV Mama
TTITLE3=Rollin' and tumblin'
TTITLE4=Bullfrog blues
TTITLE5=Evil is going on
TTITLE6=Goin' down slow
TTITLE7=Dust my broom
TTITLE8=Help me
TTITLE9=Story of my life
TTITLE10=Hunter
TTITLE11=Whiskey and Women
TTITLE12=Shake, rattle and roll
TTITLE13=Mean old world
TTITLE14=Fannie Mae
TTITLE15=Gotta Boogie
TTITLE16=My crime
TTITLE17=On the road again
TTITLE18=Commercial 1
TTITLE19=Commercial 2
EXTD=
EXTT0=
EXTT1=
EXTT2=
EXTT3=
EXTT4=
EXTT5=
EXTT6=
EXTT7=
EXTT8=
EXTT9=
EXTT10=
EXTT11=
EXTT12=
EXTT13=
EXTT14=
EXTT15=
EXTT16=
EXTT17=
EXTT18=
EXTT19=
PLAYORDER=
